<?xml version="1.0" encoding="UTF-8"?><svg id="Layer_2" xmlns="http://www.w3.org/2000/svg" viewBox="0 0 226.98633 234.74876"><defs><style>.cls-1{fill:#fff;}.cls-2{fill:#161b5b;}.cls-3{fill:#19d8c5;}</style></defs><g id="Layer_1-2"><g><g><path class="cls-2" d="M0,198.36986l10.26465-45.96582h5.48828l10.26465,45.96582h-6.58496l-1.93652-9.87793H8.52148l-1.93652,9.87793H0Zm16.26855-16.0752l-3.22754-16.65625h-.12891l-3.22852,16.65625h6.58496Z"/><path class="cls-2" d="M50.16211,185.26439v2.84082c0,1.41992-.26953,2.76562-.80664,4.03516-.53906,1.26953-1.28125,2.39941-2.22754,3.38867-.94727,.99121-2.05566,1.77539-3.32422,2.35645-1.27051,.58105-2.6377,.87207-4.09961,.87207-1.24902,0-2.51855-.17285-3.80957-.5166s-2.45312-.94629-3.48633-1.80762c-1.03223-.86035-1.88281-1.96973-2.5498-3.3252-.66797-1.35547-1-3.08789-1-5.19727v-25.30664c0-1.50586,.25781-2.90527,.77441-4.19629s1.24805-2.41016,2.19531-3.35742c.94531-.94531,2.0752-1.68848,3.38867-2.22656,1.3125-.53809,2.76465-.80762,4.35742-.80762,3.09961,0,5.61719,1.01172,7.55371,3.03418,.94629,.99121,1.68848,2.16309,2.22754,3.51855,.53711,1.35645,.80664,2.83105,.80664,4.42285v2.58203h-6.58496v-2.19531c0-1.29102-.36621-2.40918-1.09766-3.35645-.73242-.94629-1.72168-1.4209-2.96973-1.4209-1.63574,0-2.72266,.50684-3.25977,1.51758-.53906,1.01172-.80664,2.29199-.80664,3.84082v23.5c0,1.33398,.29004,2.45312,.87109,3.35645,.58105,.9043,1.62402,1.35645,3.13086,1.35645,.42969,0,.89258-.0752,1.38867-.22656,.49414-.15039,.95703-.39746,1.3877-.74219,.3877-.34375,.70996-.81738,.96875-1.41992,.25781-.60254,.38672-1.35645,.38672-2.25977v-2.25977h6.58496Z"/><path class="cls-2" d="M55.52051,198.36986v-45.96582h6.32715l8.45703,24.33887h.12891l8.39258-24.33887h6.3916v45.96582h-6.58496v-27.9541h-.12891l-6.52051,19.75488h-3.29297l-6.45605-19.75488h-.12891v27.9541h-6.58496Z"/><path class="cls-2" d="M91.41504,198.36986v-45.96582h19.62598v6.19727h-13.04102v13.49316h11.3623v6.19727h-11.3623v13.49316h13.04102v6.58496h-19.62598Z"/><path class="cls-2" d="M148.22559,185.26439v2.84082c0,1.41992-.26953,2.76562-.80664,4.03516-.53906,1.26953-1.28125,2.39941-2.22754,3.38867-.94727,.99121-2.05566,1.77539-3.32422,2.35645-1.27051,.58105-2.6377,.87207-4.09961,.87207-1.24902,0-2.51855-.17285-3.80957-.5166s-2.45312-.94629-3.48633-1.80762c-1.03223-.86035-1.88281-1.96973-2.5498-3.3252-.66797-1.35547-1-3.08789-1-5.19727v-25.30664c0-1.50586,.25781-2.90527,.77441-4.19629s1.24805-2.41016,2.19531-3.35742c.94531-.94531,2.0752-1.68848,3.38867-2.22656,1.3125-.53809,2.76465-.80762,4.35742-.80762,3.09961,0,5.61719,1.01172,7.55371,3.03418,.94629,.99121,1.68848,2.16309,2.22754,3.51855,.53711,1.35645,.80664,2.83105,.80664,4.42285v2.58203h-6.58496v-2.19531c0-1.29102-.36621-2.40918-1.09766-3.35645-.73242-.94629-1.72168-1.4209-2.96973-1.4209-1.63574,0-2.72266,.50684-3.25977,1.51758-.53906,1.01172-.80664,2.29199-.80664,3.84082v23.5c0,1.33398,.29004,2.45312,.87109,3.35645,.58105,.9043,1.62402,1.35645,3.13086,1.35645,.42969,0,.89258-.0752,1.38867-.22656,.49414-.15039,.95703-.39746,1.3877-.74219,.3877-.34375,.70996-.81738,.96875-1.41992,.25781-.60254,.38672-1.35645,.38672-2.25977v-2.25977h6.58496Z"/><path class="cls-2" d="M150.61426,198.36986l10.26465-45.96582h5.48828l10.26465,45.96582h-6.58496l-1.93652-9.87793h-8.97461l-1.93652,9.87793h-6.58496Zm16.26855-16.0752l-3.22754-16.65625h-.12891l-3.22852,16.65625h6.58496Z"/><path class="cls-2" d="M179.85938,198.36986v-45.96582h10.58789c7.74707,0,11.62012,4.49805,11.62012,13.49316,0,2.71094-.41895,5.01367-1.25879,6.90723-.83887,1.89453-2.31348,3.42188-4.42188,4.58398l7.10156,20.98145h-6.97266l-6.13281-19.62598h-3.93848v19.62598h-6.58496Zm6.58496-39.76855v14.33203h3.74414c1.16211,0,2.08789-.16113,2.77637-.4834,.68848-.32324,1.22656-.78516,1.61426-1.38867,.34375-.60156,.58105-1.34473,.70996-2.22656s.19336-1.90527,.19336-3.06738-.06445-2.18359-.19336-3.06641c-.12891-.88184-.3877-1.64648-.77441-2.29199-.81836-1.2041-2.36816-1.80762-4.64844-1.80762h-3.42188Z"/><path class="cls-2" d="M207.36035,198.36986v-45.96582h19.62598v6.19727h-13.04102v13.49316h11.3623v6.19727h-11.3623v13.49316h13.04102v6.58496h-19.62598Z"/></g><g><path class="cls-3" d="M26.61621,213.31322h3.46484c.16113,0,.19336,.06348,.25684,.19238,1.05957,3.27246,4.74902,14.69629,5.3916,17.48828h.03125c.70605-2.66309,4.78223-14.24805,5.84082-17.48828,.03223-.12891,.06445-.19238,.22461-.19238h3.33691c.16113,0,.19238,.03125,.19238,.16016l1.05957,20.76172c0,.12793-.06445,.19238-.19238,.19238h-2.31055c-.16113,0-.22461-.03223-.22461-.19238-.25684-7.25195-.5459-17.16797-.5459-18.99707h-.03223c-.7373,2.82422-4.81348,14.76074-6.16113,18.99707-.06348,.16016-.12793,.19238-.25684,.19238h-2.18164c-.19238,0-.22461-.03223-.28906-.19238-1.60449-5.2627-4.8457-15.85254-5.67969-19.0293h-.03223c-.06348,2.66406-.57715,12.19434-.93066,19.0293,0,.16016-.06348,.19238-.22461,.19238h-2.08594c-.16016,0-.22461-.03223-.22461-.19238l1.37988-20.72949c.03223-.16113,.09668-.19238,.19336-.19238Z"/><path class="cls-3" d="M52.67676,226.91868c-.03223,3.17676,1.63672,5.51953,5.13477,5.51953,1.31543,0,2.59863-.22461,3.75391-.80273,.12891-.06348,.19238-.03223,.19238,.12891v1.79688c0,.16016-.06348,.22461-.16016,.28906-1.02637,.54492-2.40625,.86621-4.26758,.86621-5.32715,0-7.28418-3.94727-7.28418-7.92676,0-4.55664,2.53516-8.24609,6.80273-8.24609,4.42871,0,5.96875,3.6582,5.96875,6.35352,0,.80176-.03223,1.37988-.09668,1.66797-.03223,.12891-.0957,.22461-.25684,.22461-.44922,.06445-1.79688,.12891-3.30469,.12891h-6.48242Zm5.64844-1.98926c1.54004,0,1.89258-.03223,1.98926-.06445,.03223-.09668,.03223-.28906,.03223-.38477,0-1.15527-.70605-3.78711-3.59473-3.78711-2.53418,0-3.75391,2.08594-4.04297,4.23633h5.61621Z"/><path class="cls-3" d="M65.77246,226.75853c0-4.71777,3.36914-8.21484,8.40723-8.21484,.83398,0,1.2832,.06348,1.86133,.16016v-6.96387c0-.12793,.06445-.19238,.19238-.19238h2.27832c.12793,0,.16016,.06445,.16016,.16113v20.15137c0,.44922,0,.96289,.06445,1.50879,0,.12793-.03223,.16016-.16016,.22461-1.7334,.83398-3.43359,1.12305-5.13477,1.12305-4.36426,0-7.66895-2.66406-7.66895-7.95801Zm10.26855-5.64844c-.48145-.22461-1.15527-.32031-1.95801-.32031-3.49707,0-5.64746,2.4707-5.64746,5.83984,0,4.2041,2.53516,5.77637,5.23047,5.77637,.80273,0,1.70117-.06445,2.375-.35352v-10.94238Z"/><path class="cls-3" d="M83.42383,214.17943c0-.93066,.6416-1.60449,1.57227-1.60449,.99512,0,1.57227,.67383,1.57227,1.60449,0,.96289-.6416,1.60449-1.60449,1.60449-.93066,0-1.54004-.6416-1.54004-1.60449Zm.25684,4.87695c0-.16016,.03223-.22461,.19238-.22461h2.21387c.16113,0,.22461,.03223,.22461,.19238v15.17871c0,.16016-.06348,.22461-.22461,.22461h-2.18164c-.16016,0-.22461-.06445-.22461-.22461v-15.14648Z"/><path class="cls-3" d="M101.2666,234.01048c0,.12793,0,.19238-.12793,.25684-.96289,.38477-2.15039,.44922-3.30566,.44922-5.00586,0-7.60449-3.62598-7.60449-8.02246,0-4.65332,3.20898-8.15039,8.05469-8.15039,1.50781,0,2.37402,.16016,2.85547,.38477,.12793,.06445,.16016,.12793,.16016,.28906l-.03223,1.95703c0,.16016-.0957,.16016-.19238,.12891-.76953-.32129-1.54004-.4502-2.79102-.4502-3.17773,0-5.3916,2.21484-5.3916,5.71191,0,3.97949,2.53516,5.80859,5.3916,5.80859,1.12305,0,2.05371-.12793,2.82324-.41699,.12891-.03223,.16016,.03223,.16016,.12793v1.92578Z"/><path class="cls-3" d="M115.64551,224.44798v7.34863c0,.54492,0,.99414,.06445,1.50781,0,.03223,0,.09668-.06445,.12793-2.15039,.99512-3.88281,1.28418-5.74414,1.28418-3.33691,0-5.77637-1.70117-5.77637-4.97363,0-3.40234,3.08105-4.91016,6.89941-4.91016,1.09082,0,1.7334,.03223,2.05371,.06445v-.83496c0-1.02637-.41699-3.20898-3.43359-3.20898-1.47559,0-2.82324,.35352-3.91504,.93066-.0957,.03223-.19238,0-.19238-.16016v-1.89355c0-.12793,.03223-.19238,.16016-.25586,1.15527-.57812,2.69629-.93066,4.36426-.93066,3.94727,0,5.58398,2.59863,5.58398,5.9043Zm-2.56738,2.53516c-.41699-.06445-1.05859-.09668-1.95703-.09668-2.98438,0-4.42871,1.02734-4.42871,2.85645,0,1.41113,.93066,2.85547,3.6582,2.85547,1.02734,0,1.89355-.16016,2.72754-.51367v-5.10156Z"/><path class="cls-3" d="M120.58984,211.73997c0-.12793,.06445-.19238,.22461-.19238h2.18262c.16016,0,.22461,.06445,.22461,.19238v19.35059c0,1.15527,.44922,1.44336,1.18652,1.44336,.22461,0,.35352-.03223,.61035-.0957,.0957,0,.12793,.03223,.12793,.16016v1.66895c0,.16016-.03223,.19238-.16016,.25684-.28906,.12793-.80273,.22461-1.44434,.22461-1.47559,0-2.95215-.5459-2.95215-3.46582v-19.54297Z"/><path class="cls-3" d="M150.17773,233.85032c0,.16016-.06445,.28809-.19238,.32031-.96289,.41699-2.375,.5459-4.04297,.5459-5.13477,0-10.36523-3.04883-10.36523-10.87891,0-6.41699,4.26758-10.8457,10.78223-10.8457,1.95703,0,3.17676,.22461,3.85059,.5459,.09668,.03125,.16016,.12793,.16016,.28809v2.05371c0,.22461-.12793,.22461-.22461,.16113-.83398-.41797-2.18164-.67383-3.85059-.67383-4.78125,0-8.05469,3.24023-8.05469,8.375,0,6.77051,4.78125,8.59961,7.95898,8.59961,1.54004,0,2.66309-.12793,3.78613-.54492,.09668-.03223,.19238-.03223,.19238,.12793v1.92578Z"/><path class="cls-3" d="M153.80762,211.73997c0-.12793,.06445-.19238,.22461-.19238h2.18262c.16016,0,.22461,.06445,.22461,.19238v19.35059c0,1.15527,.44922,1.44336,1.18652,1.44336,.22461,0,.35352-.03223,.61035-.0957,.0957,0,.12793,.03223,.12793,.16016v1.66895c0,.16016-.03223,.19238-.16016,.25684-.28906,.12793-.80273,.22461-1.44434,.22461-1.47559,0-2.95215-.5459-2.95215-3.46582v-19.54297Z"/><path class="cls-3" d="M161.70312,214.17943c0-.93066,.6416-1.60449,1.57227-1.60449,.99512,0,1.57227,.67383,1.57227,1.60449,0,.96289-.6416,1.60449-1.60449,1.60449-.93066,0-1.54004-.6416-1.54004-1.60449Zm.25684,4.87695c0-.16016,.03223-.22461,.19238-.22461h2.21387c.16113,0,.22461,.03223,.22461,.19238v15.17871c0,.16016-.06348,.22461-.22461,.22461h-2.18164c-.16016,0-.22461-.06445-.22461-.22461v-15.14648Z"/><path class="cls-3" d="M169.56641,222.45775c0-1.09082-.06445-2.8877-.0957-3.43359-.03223-.12793,.03125-.19238,.19238-.19238h1.9248c.12891,0,.22461,.06445,.25684,.19238,.09668,.28906,.16016,.86719,.19238,1.50879,1.34766-1.31543,2.95215-1.98926,4.71777-1.98926,2.14941,0,5.00586,1.05859,5.00586,6v9.65918c0,.16016-.09668,.22461-.22461,.22461h-2.18262c-.16016,0-.22461-.06445-.22461-.22461v-9.43457c0-2.31055-.99414-3.91504-3.14453-3.91504-1.54004,0-2.82422,.70605-3.78613,1.89355v11.45605c0,.16016-.06445,.22461-.19336,.22461h-2.21387c-.16016,0-.22461-.06445-.22461-.22461v-11.74512Z"/><path class="cls-3" d="M186.48047,214.17943c0-.93066,.6416-1.60449,1.57227-1.60449,.99512,0,1.57227,.67383,1.57227,1.60449,0,.96289-.6416,1.60449-1.60449,1.60449-.93066,0-1.54004-.6416-1.54004-1.60449Zm.25684,4.87695c0-.16016,.03223-.22461,.19238-.22461h2.21387c.16113,0,.22461,.03223,.22461,.19238v15.17871c0,.16016-.06348,.22461-.22461,.22461h-2.18164c-.16016,0-.22461-.06445-.22461-.22461v-15.14648Z"/><path class="cls-3" d="M204.32324,234.01048c0,.12793,0,.19238-.12793,.25684-.96289,.38477-2.15039,.44922-3.30566,.44922-5.00586,0-7.60449-3.62598-7.60449-8.02246,0-4.65332,3.20898-8.15039,8.05469-8.15039,1.50781,0,2.37402,.16016,2.85547,.38477,.12793,.06445,.16016,.12793,.16016,.28906l-.03223,1.95703c0,.16016-.0957,.16016-.19238,.12891-.76953-.32129-1.54004-.4502-2.79102-.4502-3.17773,0-5.3916,2.21484-5.3916,5.71191,0,3.97949,2.53516,5.80859,5.3916,5.80859,1.12305,0,2.05371-.12793,2.82324-.41699,.12891-.03223,.16016,.03223,.16016,.12793v1.92578Z"/></g><path class="cls-3" d="M177.55021,79.33264c-9.33126-9.31942-18.65706-18.64409-27.98446-27.96692l1.05277-16.21456c.102-1.56868-1.08692-2.92267-2.65515-3.02375l-6.90539-.44875c-1.56823-.102-2.92221,1.08715-3.02398,2.65492l-.33582,5.17141c-2.65515-2.65401-5.31098-5.30802-7.96612-7.96203-4.34677-4.34472-8.69036-8.69241-13.04282-13.03189-1.61467-1.60944-3.63256-1.67774-5.17073-.14366-6.45482,6.4341-12.89119,12.88573-19.35193,19.31436-.02687,.02687-.03552,.04895-.05874,.07468l-8.96357,8.9638c-.03165,.02709-.05806,.03711-.09175,.07081-10.95003,10.96415-21.91509,21.91441-32.87287,32.8715-.23906,.2386-.46036,.50976-.62952,.80164-1.30845,2.25398,.26797,5.06668,2.89375,5.08877,4.35952,.03643,8.71973,.02231,13.07971,.00273,.58512-.00364,.85333,.10997,.99836,.75816,1.35558,6.06777,2.76102,12.12324,4.1487,18.18395,2.17862,9.51249,4.36157,19.0243,6.51788,28.54226,.15869,.69987,.45376,.88429,1.15955,.88429,23.79614-.0214,47.59206-.02049,71.38798-.00182,.68166,.00091,.92618-.1917,1.07964-.86562,3.53966-15.55203,7.1128-31.097,10.65246-46.64926,.15482-.68007,.41437-.86175,1.0876-.85742,4.30716,.03119,8.61477,.02595,12.92215,.00979,1.89357-.00706,3.25166-1.23696,3.44586-3.10435,.13342-1.28568-.49679-2.24693-1.37356-3.12302Zm-54.88928-27.68871c.00023-.00159,.00046-.00342,.00068-.00615,.00729-.00797,.01434-.01685,.02163-.02482-.00592,.0107-.0148,.0214-.02231,.03096Z"/><polygon class="cls-1" points="136.61837 80.06119 121.76861 80.06119 121.76861 65.21143 106.25393 65.21143 106.25393 80.06119 91.40417 80.06119 91.40417 95.57587 106.25393 95.57587 106.25393 110.42563 121.76861 110.42563 121.76861 95.57587 136.61837 95.57587 136.61837 80.06119"/><path class="cls-3" d="M149.19305,8.22918c-1.86887-1.86885-4.89926-1.86885-6.76873,0l-1.09669,1.09667-1.0966-1.09667c-1.86952-1.86885-4.8999-1.86885-6.76873,0-1.86887,1.86888-1.86887,4.89927,0,6.76876l1.09665,1.09665,6.76869,6.76873,6.76873-6.76873,1.09669-1.09665c1.86883-1.86949,1.86883-4.89988,0-6.76876Z"/><path class="cls-3" d="M157.03689,21.25066c-.8906-.89059-2.33472-.89059-3.2256,0l-.52262,.52261-.52258-.52261c-.89091-.89059-2.33502-.89059-3.2256,0-.8906,.8906-.8906,2.33472,0,3.22562l.5226,.5226,3.22558,3.2256,3.2256-3.2256,.52262-.5226c.89058-.8909,.89058-2.33501,0-3.22562Z"/><path class="cls-3" d="M156.06247,.46319c-.61759-.61758-1.61901-.61758-2.2368,0l-.36241,.36241-.36238-.36241c-.6178-.61758-1.61922-.61758-2.2368,0-.61759,.61759-.61759,1.61901,0,2.23681l.3624,.3624,2.23678,2.2368,2.2368-2.2368,.36241-.3624c.61757-.61779,.61757-1.61922,0-2.23681Z"/></g></g></svg>